<?xml version="1.0" encoding="UTF-8"?>
<svg width="20px" height="15px" viewBox="0 0 20 15" version="1.1" xmlns="https://www.w3.org/2000/svg" xmlns:xlink="https://www.w3.org/1999/xlink">
    <!-- Generator: Sketch 53 (72520) - https://sketchapp.com -->
    <title>Combined Shape</title>
    <desc>Created with Sketch.</desc>
    <g id="Home" stroke="none" stroke-width="1" fill="none" fill-rule="evenodd">
        <g id="home" transform="translate(-411.000000, -1497.000000)" fill="#56AAF2" fill-rule="nonzero">
            <path d="M422.320329,1506.75469 L412.400221,1506.09335 C411.612275,1506.04082 411,1505.38637 411,1504.59667 L411,1504.40333 C411,1503.61363 411.612275,1502.95918 412.400221,1502.90665 L422.230675,1502.25129 L421.001598,1498.91439 C420.857778,1498.52392 421.057725,1498.09079 421.448194,1497.94697 C421.690347,1497.85778 421.961303,1497.89872 422.16629,1498.05548 L429.977163,1504.02869 C430.307702,1504.28146 430.370744,1504.75433 430.117971,1505.08486 C430.077472,1505.13782 430.030122,1505.18517 429.977163,1505.22567 L422.16529,1511.19963 C421.834751,1511.4524 421.361883,1511.38936 421.109111,1511.05882 C420.952396,1510.85389 420.911428,1510.58302 421.000528,1510.34091 L422.320329,1506.75469 Z" id="Combined-Shape"></path>
        </g>
    </g>
</svg>