<?xml version="1.0" encoding="UTF-8"?>
<svg width="18px" height="18px" viewBox="0 0 18 18" version="1.1" xmlns="http://www.w3.org/2000/svg" xmlns:xlink="http://www.w3.org/1999/xlink">
    <!-- Generator: Sketch 53 (72520) - https://sketchapp.com -->
    <title>dribbble-icon</title>
    <desc>Created with Sketch.</desc>
    <g id="Home" stroke="none" stroke-width="1" fill="none" fill-rule="evenodd">
        <g id="home" transform="translate(-1373.000000, -188.000000)" fill="#394349" fill-rule="nonzero">
            <g id="Group" transform="translate(1366.000000, 72.000000)">
                <g id="dribbble-icon" transform="translate(7.000000, 116.000000)">
                    <path d="M17.7948,7.25472 C17.67816,6.68304 17.50284,6.12 17.27604,5.58216 C17.0532,5.05404 16.77672,4.54572 16.4556,4.07052 C16.137,3.59928 15.7716,3.15648 15.36912,2.75436 C14.967,2.35152 14.52384,1.98576 14.05296,1.66788 C13.57776,1.34568 13.06872,1.07028 12.54132,0.84672 C12.00348,0.62028 11.4408,0.4446 10.86876,0.32868 C10.28304,0.20844 9.67968,0.14724 9.07704,0.14724 C8.47368,0.14724 7.87104,0.20844 7.2846,0.32868 C6.71292,0.4446 6.14988,0.62064 5.6124,0.84672 C5.085,1.07028 4.57596,1.34604 4.10004,1.66788 C3.6288,1.98576 3.186,2.35116 2.78388,2.75436 C2.3814,3.15648 2.01636,3.59964 1.69812,4.07052 C1.37664,4.54572 1.10052,5.05404 0.87768,5.58216 C0.6498,6.12 0.4752,6.68304 0.3582,7.25472 C0.23832,7.83972 0.17748,8.44308 0.17748,9.04608 C0.17748,9.65016 0.23832,10.25352 0.3582,10.83888 C0.4752,11.41056 0.65016,11.9736 0.87732,12.51108 C1.10016,13.03848 1.37664,13.54824 1.69776,14.02344 C2.016,14.49468 2.38104,14.93676 2.78352,15.3396 C3.18564,15.74172 3.6288,16.10676 4.09968,16.42536 C4.5756,16.74684 5.08464,17.02296 5.61204,17.2458 C6.14916,17.47368 6.71256,17.6472 7.28424,17.76456 C7.87068,17.88552 8.47332,17.946 9.07668,17.946 C9.67932,17.946 10.28268,17.88552 10.8684,17.76456 C11.4408,17.6472 12.00312,17.47332 12.54096,17.2458 C13.06836,17.02296 13.5774,16.74648 14.0526,16.42536 C14.52384,16.10676 14.96664,15.74208 15.36876,15.3396 C15.77088,14.93676 16.13664,14.49432 16.45524,14.02344 C16.77672,13.54824 17.05284,13.03848 17.27568,12.51108 C17.50284,11.97396 17.6778,11.41056 17.79444,10.83888 C17.91468,10.25316 17.97516,9.6498 17.97516,9.04608 C17.97552,8.44308 17.91504,7.83972 17.7948,7.25472 Z M16.67376,8.97084 C16.56396,8.94708 13.99212,8.3934 11.38068,8.72172 C11.3274,8.59176 11.27304,8.46072 11.21688,8.32932 C11.05884,7.95744 10.88856,7.5888 10.71144,7.227 C13.71312,6.00228 14.93172,4.24008 14.94576,4.2192 C16.01172,5.51304 16.65648,7.16688 16.67376,8.97084 Z M14.09616,3.3426 C14.07708,3.37212 12.99492,5.01948 10.12644,6.0948 C8.8272,3.70764 7.3998,1.81152 7.28568,1.66104 C7.86024,1.52172 8.45928,1.44648 9.07668,1.44648 C11.00124,1.44648 12.75696,2.1636 14.09616,3.3426 Z M5.8338,2.1726 C5.93496,2.30832 7.34076,4.2138 8.6562,6.55164 C5.00688,7.52112 1.83996,7.48332 1.63908,7.47972 C2.133,5.12568 3.71448,3.17376 5.8338,2.1726 Z M1.47672,9.04608 C1.47672,8.96508 1.48032,8.88588 1.4832,8.80596 C1.61712,8.80884 5.37264,8.89416 9.28548,7.72308 C9.50328,8.14932 9.71172,8.5824 9.90216,9.01512 C9.80172,9.0432 9.70164,9.07344 9.60264,9.10584 C5.50116,10.43136 3.42072,14.12208 3.42072,14.12208 C3.42072,14.12208 3.4236,14.12424 3.4236,14.12568 C2.21364,12.77892 1.47672,10.99872 1.47672,9.04608 Z M9.07668,16.64676 C7.23744,16.64676 5.55048,15.993 4.23576,14.90508 C4.33548,14.98608 4.40604,15.03792 4.40604,15.03792 C4.40604,15.03792 5.86296,11.86056 10.3698,10.29024 C10.38672,10.28376 10.40364,10.27908 10.42056,10.27404 C11.49012,13.05288 11.93148,15.38028 12.04416,16.04448 C11.13192,16.43256 10.12932,16.64676 9.07668,16.64676 Z M13.3236,15.3504 C13.2462,14.8914 12.8412,12.66084 11.84436,9.9216 C14.2974,9.5292 16.42392,10.20204 16.58052,10.25352 C16.24212,12.37104 15.03,14.19768 13.3236,15.3504 Z" id="Shape"></path>
                </g>
            </g>
        </g>
    </g>
</svg>