<?xml version="1.0" encoding="utf-8"?>
<!-- Generator: Adobe Illustrator 22.0.1, SVG Export Plug-In . SVG Version: 6.00 Build 0)  -->
<svg version="1.1" id="Google" xmlns="https://www.w3.org/2000/svg" xmlns:xlink="https://www.w3.org/1999/xlink" x="0px" y="0px"
	 viewBox="0 0 1000 335" style="enable-background:new 0 0 1000 335;" xml:space="preserve">
<style type="text/css">
	.st0{fill:#4368B0;}
</style>
<g>
	<path id="XMLID_48_" class="st0" d="M78.3,101.1c-11.8,0-15.2,5.2-15.2,16.7v19.1h31.4l-3.1,30.9H63.2v93.7H25.5v-93.7H0.1v-30.9
		h25.4v-18.6c0-31.1,12.6-47.6,47.6-47.6c7.6,0,16.5,0.5,22,1.3v29"/>
	<path class="st0" d="M97.2,195.2c0-34.8,16.5-61,51-61c18.8,0,30.3,9.7,35.8,21.7v-19.1h36.1v124.5H184v-18.8
		c-5.2,12-17,21.4-35.8,21.4c-34.5,0-51-26.1-51-60.9 M134.8,203.6c0,18.6,6.8,30.9,24.3,30.9c15.4,0,23.3-11.2,23.3-29v-12.6
		c0-17.8-7.8-29-23.3-29c-17.5,0-24.3,12.3-24.3,30.9V203.6z"/>
	<path id="XMLID_45_" class="st0" d="M298.6,134.3c14.6,0,28.5,3.1,36.1,8.4l-8.4,26.7c-5.8-2.9-15.2-5.8-25.1-5.8
		c-20.4,0-29.3,11.8-29.3,31.9v7.3c0,20.2,8.9,31.9,29.3,31.9c9.9,0,19.4-2.9,25.1-5.8l8.4,26.7c-7.6,5.2-21.5,8.4-36.1,8.4
		c-44.2,0-64.4-23.8-64.4-62v-5.8C234.2,158.1,254.4,134.3,298.6,134.3"/>
	<path class="st0" d="M339.7,203.9v-11c0-35.3,20.1-58.6,61.2-58.6c38.7,0,55.7,23.5,55.7,58.1v19.9h-79.3
		c0.8,17,8.4,24.6,29.3,24.6c14.1,0,29-2.9,40-7.6l6.8,25.9c-9.9,5.2-30.3,9.2-48.4,9.2C357.4,264.3,339.7,240.5,339.7,203.9
		 M377.3,187.6h45.5v-3.1c0-13.6-5.5-24.3-22-24.3C383.9,160.2,377.3,170.9,377.3,187.6"/>
	<path class="st0" d="M596.3,203.1c0,34.8-16.7,61-51.3,61c-18.8,0-31.9-9.4-37.2-21.5v18.8h-35.6V74.4L510,71v83.2
		c5.5-11,17.5-19.9,35.1-19.9c34.5,0,51.3,26.1,51.3,60.9 M558.6,194.4c0-17.5-6.8-30.6-24.8-30.6c-15.4,0-23.8,11-23.8,28.8v13.1
		c0,17.8,8.4,28.8,23.8,28.8c18,0,24.8-13.1,24.8-30.6V194.4z"/>
	<path class="st0" d="M608.8,202.3V196c0-35.8,20.4-61.7,62-61.7c41.6,0,62,25.9,62,61.7v6.3c0,35.8-20.4,61.7-62,61.7
		C629.2,264,608.8,238.1,608.8,202.3 M695.2,193.4c0-16.5-6.8-29.6-24.3-29.6c-17.5,0-24.3,13.1-24.3,29.6v11.5
		c0,16.5,6.8,29.6,24.3,29.6c17.5,0,24.3-13.1,24.3-29.6V193.4z"/>
	<path class="st0" d="M745.4,202.3V196c0-35.8,20.4-61.7,62-61.7c41.6,0,62,25.9,62,61.7v6.3c0,35.8-20.4,61.7-62,61.7
		C765.8,264,745.4,238.1,745.4,202.3 M831.7,193.4c0-16.5-6.8-29.6-24.3-29.6c-17.5,0-24.3,13.1-24.3,29.6v11.5
		c0,16.5,6.8,29.6,24.3,29.6c17.5,0,24.3-13.1,24.3-29.6V193.4z"/>
	<polyline id="XMLID_32_" class="st0" points="921.1,196.3 958.3,136.9 998.3,136.9 959.3,198.4 999.9,261.4 959.9,261.4 
		921.1,200.5 921.1,261.4 883.5,261.4 883.5,74.4 921.1,71 	"/>
</g>
</svg>
