<?xml version="1.0" encoding="UTF-8"?>
<svg width="18px" height="18px" viewBox="0 0 18 18" version="1.1" xmlns="http://www.w3.org/2000/svg" xmlns:xlink="http://www.w3.org/1999/xlink">
    <!-- Generator: Sketch 54.1 (76490) - https://sketchapp.com -->
    <title>facebook-icon</title>
    <desc>Created with Sketch.</desc>
    <defs>
        <polygon id="path-1" points="0.0010546875 0.000703125 18 0.000703125 18 17.8906641 0.0010546875 17.8906641"></polygon>
    </defs>
    <g id="facebook-icon" stroke="none" stroke-width="1" fill="none" fill-rule="evenodd">
        <g id="f_logo_RGB-Black_1024">
            <g id="Group-3">
                <mask id="mask-2" fill="white">
                    <use xlink:href="#path-1"></use>
                </mask>
                <g id="Clip-2"></g>
                <path d="M18,9 C18,4.02943359 13.9705664,0 9,0 C4.02943359,0 0,4.02943359 0,9 C0,13.4921602 3.29116992,17.2154883 7.59375,17.8906641 L7.59375,11.6015625 L5.30859375,11.6015625 L5.30859375,9 L7.59375,9 L7.59375,7.0171875 C7.59375,4.7615625 8.93738672,3.515625 10.9931836,3.515625 C11.9778574,3.515625 13.0078125,3.69140625 13.0078125,3.69140625 L13.0078125,5.90625 L11.8729336,5.90625 C10.7549121,5.90625 10.40625,6.60000586 10.40625,7.31174414 L10.40625,9 L12.9023438,9 L12.5033203,11.6015625 L10.40625,11.6015625 L10.40625,17.8906641 C14.7088301,17.2154883 18,13.4921602 18,9" id="Fill-1" fill="#394349" mask="url(#mask-2)"></path>
            </g>
            <path d="M12.5033203,11.6015625 L12.9023438,9 L10.40625,9 L10.40625,7.31174414 C10.40625,6.60000586 10.7549121,5.90625 11.8729336,5.90625 L13.0078125,5.90625 L13.0078125,3.69140625 C13.0078125,3.69140625 11.9778574,3.515625 10.9931836,3.515625 C8.93738672,3.515625 7.59375,4.7615625 7.59375,7.0171875 L7.59375,9 L5.30859375,9 L5.30859375,11.6015625 L7.59375,11.6015625 L7.59375,17.8906641 C8.05195898,17.9625586 8.52159375,18 9,18 C9.47840625,18 9.94804102,17.9625586 10.40625,17.8906641 L10.40625,11.6015625 L12.5033203,11.6015625" id="Fill-4" fill="#FFFFFE"></path>
        </g>
    </g>
</svg>