<?xml version="1.0" encoding="UTF-8"?>
<svg width="16px" height="15px" viewBox="0 0 16 15" version="1.1" xmlns="http://www.w3.org/2000/svg" xmlns:xlink="http://www.w3.org/1999/xlink">
    <!-- Generator: Sketch 53 (72520) - https://sketchapp.com -->
    <title>linkedin-icon</title>
    <desc>Created with Sketch.</desc>
    <g id="Home" stroke="none" stroke-width="1" fill="none" fill-rule="evenodd">
        <g id="home" transform="translate(-1374.000000, -333.000000)" fill="#394349">
            <g id="Group" transform="translate(1366.000000, 72.000000)">
                <g id="linkedin-icon" transform="translate(8.000000, 261.000000)">
                    <path d="M0.240170517,4.85888505 L3.59017595,4.85888505 L3.59017595,14.9355465 L0.240170517,14.9355465 L0.240170517,4.85888505 Z M1.93781251,-5.13267506e-15 C3.08325046,-5.13267506e-15 3.78858824,0.753529686 3.81025639,1.74116038 C3.81025639,2.70803335 3.08318977,3.48232076 1.91511254,3.48232076 L1.89344439,3.48232076 C0.768885547,3.48232076 0.0427900466,2.70803335 0.0427900466,1.74116038 C0.0427900466,0.753529686 0.79164621,-5.99520433e-15 1.93781251,-5.99520433e-15 Z M11.8115095,4.62193198 C14.0152273,4.62193198 15.6677728,6.06180188 15.6677728,9.15700928 L15.6677728,14.9355471 L12.3184957,14.9355471 L12.3184957,9.54412264 C12.3184957,8.19007561 11.8331777,7.26568922 10.6217642,7.26568922 C9.69646734,7.26568922 9.14499165,7.88884583 8.90330375,8.49039498 C8.81450682,8.7056805 8.79283867,9.0067889 8.79283867,9.30801869 L8.79283867,14.9355471 L5.44374366,14.9355471 C5.44374366,14.9355471 5.48817247,5.80409048 5.44374366,4.85888566 L8.79289936,4.85888566 L8.79289936,6.28558472 C9.23858349,5.59918381 10.0345391,4.62193198 11.8115095,4.62193198 Z" id="Combined-Shape"></path>
                </g>
            </g>
        </g>
    </g>
</svg>