<?xml version="1.0" encoding="UTF-8"?>
<svg width="18px" height="18px" viewBox="0 0 18 18" version="1.1" xmlns="http://www.w3.org/2000/svg" xmlns:xlink="http://www.w3.org/1999/xlink">
    <!-- Generator: Sketch 54.1 (76490) - https://sketchapp.com -->
    <title>spotify-icon</title>
    <desc>Created with Sketch.</desc>
    <g id="spotify-icon" stroke="none" stroke-width="1" fill="none" fill-rule="evenodd">
        <path d="M14.3238241,7.97869673 C11.4227338,6.2558184 6.63745029,6.09740516 3.86801285,6.93794108 C3.42318761,7.0729255 2.95289158,6.82187168 2.81812211,6.37715391 C2.68335264,5.93211373 2.93419151,5.46214012 3.3792317,5.32694076 C6.55835115,4.36195264 11.8432705,4.54830852 15.1830601,6.5308384 C15.5830696,6.76835079 15.7142925,7.2849671 15.47721,7.68433182 C15.2399126,8.08434138 14.7228664,8.21620912 14.3238241,7.97869673 Z M14.2288191,10.530504 C14.0252678,10.8607645 13.5934466,10.9643672 13.2636161,10.7615681 C10.8449661,9.27491253 7.15686087,8.84416608 4.29542768,9.71275211 C3.924328,9.82484506 3.5324863,9.61570519 3.41974852,9.24525035 C3.30797798,8.87425815 3.51722532,8.48306127 3.88768016,8.37021602 C7.15643099,7.37825251 11.2200423,7.85865087 13.99797,9.56583834 C14.3278005,9.76895979 14.4316182,10.2009959 14.2288191,10.530504 Z M13.1275569,12.9811805 C12.9658121,13.2464206 12.6205056,13.3294962 12.3562328,13.1678588 C10.2428024,11.8761568 7.58266363,11.5844787 4.44986447,12.3000251 C4.14797655,12.3692368 3.84705587,12.1800867 3.77816653,11.8781988 C3.70906225,11.5764183 3.89756756,11.2754977 4.20010031,11.2066083 C7.62844656,10.4229249 10.5691938,10.760171 12.941416,12.2097489 C13.2059038,12.3712788 13.2891943,12.7168002 13.1275569,12.9811805 Z M9,0 C4.02954277,0 0,4.0294353 0,8.99989253 C0,13.9708871 4.02954277,18 9,18 C13.9706722,18 18,13.9708871 18,8.99989253 C18,4.0294353 13.9706722,0 9,0 L9,0 Z" id="Spotify_Icon_RGB_Black" fill="#394349"></path>
    </g>
</svg>