<?xml version="1.0" encoding="UTF-8"?>
<svg width="20px" height="16px" viewBox="0 0 20 16" version="1.1" xmlns="http://www.w3.org/2000/svg" xmlns:xlink="http://www.w3.org/1999/xlink">
    <!-- Generator: Sketch 53 (72520) - https://sketchapp.com -->
    <title>twitter-icon</title>
    <desc>Created with Sketch.</desc>
    <g id="Home" stroke="none" stroke-width="1" fill="none" fill-rule="evenodd">
        <g id="home" transform="translate(-1372.000000, -261.000000)" fill="#394349">
            <g id="Group" transform="translate(1366.000000, 72.000000)">
                <g id="twitter-icon" transform="translate(6.000000, 189.000000)">
                    <path d="M19.9348,1.84936585 C19.2104,2.1635122 18.4308,2.37541463 17.6128,2.4702439 C18.448,1.98243902 19.0884,1.2097561 19.3904,0.288 C18.6092,0.740292683 17.7444,1.0684878 16.8232,1.24565854 C16.086,0.479219512 15.0352,0 13.8724,0 C11.64,0 9.83,1.76585366 9.83,3.94419512 C9.83,4.25287805 9.8656,4.5537561 9.9348,4.84292683 C6.5748,4.6782439 3.5956,3.10829268 1.6016,0.72195122 C1.2536,1.30419512 1.0544,1.98165854 1.0544,2.70517073 C1.0544,4.07336585 1.768,5.28078049 2.8528,5.98790244 C2.1904,5.96721951 1.5668,5.78965854 1.0216,5.4942439 C1.0212,5.51063415 1.0212,5.52741463 1.0212,5.54419512 C1.0212,7.45482927 2.4148,9.04858537 4.2644,9.4115122 C3.9252,9.50126829 3.568,9.54965854 3.1992,9.54965854 C2.9384,9.54965854 2.6852,9.52507317 2.4384,9.47863415 C2.9532,11.0454634 4.446,12.1861463 6.2148,12.2177561 C4.8312,13.2757073 3.0884,13.9063415 1.194,13.9063415 C0.868,13.9063415 0.546,13.8876098 0.2296,13.8509268 C2.0192,14.9705366 4.144,15.6230244 6.4268,15.6230244 C13.8632,15.6230244 17.9292,9.61326829 17.9292,4.40117073 C17.9292,4.2302439 17.9256,4.05970732 17.918,3.89034146 C18.7076,3.33541463 19.3932,2.64039024 19.9348,1.84936585 Z" id="Path"></path>
                </g>
            </g>
        </g>
    </g>
</svg>